<?xml version="1.0" encoding="UTF-8" standalone="no"?>
<!-- Created with Inkscape (http://www.inkscape.org/) -->

<svg
   xmlns:osb="http://www.openswatchbook.org/uri/2009/osb"
   xmlns:dc="http://purl.org/dc/elements/1.1/"
   xmlns:cc="http://creativecommons.org/ns#"
   xmlns:rdf="http://www.w3.org/1999/02/22-rdf-syntax-ns#"
   xmlns:svg="http://www.w3.org/2000/svg"
   xmlns="http://www.w3.org/2000/svg"
   xmlns:sodipodi="http://sodipodi.sourceforge.net/DTD/sodipodi-0.dtd"
   xmlns:inkscape="http://www.inkscape.org/namespaces/inkscape"
   width="300"
   height="300"
   id="svg3040"
   version="1.1"
   inkscape:version="0.91 r13725"
   sodipodi:docname="logo-2017-final-fits-circle.svg"
   inkscape:export-filename="/home/self/bame/git/reporting/Graphics/corporate_identity/logo-2017-final.svg.png"
   inkscape:export-xdpi="300"
   inkscape:export-ydpi="300">
  <defs
     id="defs3042">
    <linearGradient
       id="linearGradient4294"
       osb:paint="solid">
      <stop
         style="stop-color:#000000;stop-opacity:1;"
         offset="0"
         id="stop4296" />
    </linearGradient>
    <linearGradient
       id="linearGradient2542">
      <stop
         style="stop-color:#106600;stop-opacity:1;"
         offset="0"
         id="stop2544" />
      <stop
         id="stop2546"
         offset="0.4696297"
         style="stop-color:#f8ff00;stop-opacity:0.81176472;" />
      <stop
         id="stop2548"
         offset="1"
         style="stop-color:#ff0019;stop-opacity:0.62352943;" />
    </linearGradient>
    <clipPath
       clipPathUnits="userSpaceOnUse"
       id="clipPath4525">
      <path
         style="color:#000000;font-style:normal;font-variant:normal;font-weight:bold;font-stretch:normal;font-size:132.6875px;line-height:125%;font-family:Arial;-inkscape-font-specification:'Arial, Bold';text-indent:0;text-align:start;text-decoration:none;text-decoration-line:none;text-decoration-style:solid;text-decoration-color:#000000;letter-spacing:7.05000019px;word-spacing:0px;text-transform:none;direction:ltr;block-progression:tb;writing-mode:lr-tb;baseline-shift:baseline;text-anchor:start;white-space:normal;clip-rule:nonzero;display:inline;overflow:visible;visibility:visible;opacity:1;isolation:auto;mix-blend-mode:normal;color-interpolation:sRGB;color-interpolation-filters:linearRGB;solid-color:#000000;solid-opacity:1;fill:#000000;fill-opacity:1;fill-rule:nonzero;stroke:none;stroke-width:8;stroke-linecap:butt;stroke-linejoin:miter;stroke-miterlimit:4;stroke-dasharray:none;stroke-dashoffset:0;stroke-opacity:1;color-rendering:auto;image-rendering:auto;shape-rendering:auto;text-rendering:auto;enable-background:accumulate"
         d="m -501.56151,573.24052 c -5.11337,0 -10.62646,1.01789 -16.81491,2.83795 -6.38063,1.87667 -12.80775,4.69556 -19.29925,8.39209 -6.77471,3.85779 -13.01937,8.86087 -18.70675,14.9153 l -0.13227,0.14005 -0.12449,0.14783 c -6.09878,7.17502 -10.74765,14.30706 -13.82505,21.51806 -5.8e-4,0.001 0,0 0,0 -2.84962,6.59576 -4.88326,12.79724 -6.02544,18.68769 -9.8e-4,0 0,0.0195 0,0.0195 -5.9e-4,0 3.8e-4,0 0,0 -1.14841,5.84727 -1.65259,12.70406 -1.65259,20.76218 0,2.97703 0.78972,5.94452 2.15404,8.53642 1.79906,3.41857 5.06863,5.92838 8.4378,7.19175 2.68157,1.00563 5.43082,1.62982 8.27811,1.62982 l 42.41309,0 0.56604,-0.0836 c 3.20247,-0.47441 3.48646,0.1206 3.31295,-0.0525 -0.17312,-0.17312 0.6417,0.73584 0.38747,4.42207 l -0.0195,0.26979 0,60.75883 c 0,4.45494 0.78642,8.71537 2.81131,12.49535 2.00387,3.7405 5.0943,6.73756 8.74941,9.11393 2.46196,1.63917 4.7967,2.92918 7.67025,3.60531 2.95135,0.69441 5.63175,0.71056 9.72198,0.71056 6.34951,0 14.64376,-1.09745 25.62872,-3.15715 l 26.30484,-4.93111 -24.84599,-9.93848 c -2.09161,-0.8366 -4.063,-1.84068 -5.93053,-3.01651 -1.53101,-0.96401 -2.66911,-2.02411 -3.59013,-3.25207 -0.70297,-0.93737 -0.71426,-1.24081 -0.71426,-1.62983 l 0,-73.93032 -0.17506,-0.81676 c -1.10561,-5.08614 -3.51661,-9.83674 -7.5868,-13.03474 -4.07001,-3.1978 -9.30067,-4.3999 -14.47064,-4.17523 l 0.33806,0 -31.12975,0 c -4.37908,-0.98521 -5.99296,-2.33358 -7.10052,-4.8893 -1.14296,-2.6374 -1.49601,-7.8103 0.37988,-15.46616 5.07389,-15.62391 12.65194,-23.67151 23.619,-27.07608 15.23722,-0.4009 26.92204,2.38065 35.79497,7.65897 3.08537,23.18542 16.80052,40.07601 38.77355,46.45527 l 15.02539,4.36139 -5.58838,-14.61147 c -8.47164,-22.15645 -10.57297,-38.37246 -8.30106,-47.20746 l 1.61466,-6.27987 -5.8887,-2.72008 c -13.45295,-6.20907 -26.06637,-10.83479 -37.89591,-13.83633 -11.73208,-2.97684 -22.41807,-4.52477 -32.15542,-4.52477 z m -240.42183,1.0105 0,69.62612 16.42725,-3.16085 c -9.91163,17.83359 -15.37494,40.90698 -16.91743,68.92684 l -0.0195,0.2128 0,9.79026 c 0,13.08259 1.38124,23.18834 5.58468,31.02724 3.40476,6.34951 6.67493,11.12365 11.54165,14.28838 2.45379,1.63197 4.7827,2.91984 7.6475,3.59383 2.95135,0.69442 5.63175,0.71056 9.72198,0.71056 6.3495,0 14.64376,-1.09744 25.62852,-3.15715 l 26.30504,-4.93111 -24.84619,-9.93848 c -2.09141,-0.8366 -4.0628,-1.84068 -5.93033,-3.01651 -1.04162,-0.6559 -3.47187,-2.7938 -6.38996,-6.24953 -2.55688,-3.02779 -4.38628,-6.32227 -5.59616,-10.0865 -1.248,-3.88287 -1.89573,-8.09468 -1.89573,-12.74219 0,-3.96399 0.58957,-9.2355 1.86539,-15.61438 l 0,-0.0233 0,-0.0272 c 1.78894,-9.2427 5.1904,-16.09502 10.04876,-21.25197 7.65411,-7.608 17.24654,-10.73092 31.19433,-9.2888 4.83133,0.70959 7.40319,2.49678 9.88888,7.22579 2.503,4.76169 4.18087,12.90909 4.02331,24.24962 l 0,0.0564 0,38.86847 c 0,4.45494 0.79012,8.71537 2.815,12.49535 2.00466,3.74205 5.09606,6.74087 8.75311,9.11782 2.45924,1.63664 4.79223,2.92607 7.66286,3.60142 2.95116,0.69442 5.63156,0.71056 9.72179,0.71056 6.3495,0 14.64765,-1.09745 25.6326,-3.15715 l 26.30096,-4.93111 -24.846,-9.93848 c -2.09141,-0.8366 -4.0591,-1.84068 -5.92663,-3.01651 -1.53101,-0.96401 -2.673,-2.02411 -3.59383,-3.25207 -0.70317,-0.93736 -0.71056,-1.24081 -0.71056,-1.62983 l 0,-46.33371 -0.0564,-0.45963 c -1.8401,-15.45702 -7.61909,-28.46239 -17.5175,-37.76675 -9.8984,-9.30456 -23.46222,-14.62061 -39.75759,-16.43114 l -0.22038,-0.0234 -0.22408,-0.0195 c -12.18881,-0.65298 -23.53147,1.47617 -33.96382,5.72901 2.16727,-3.23145 4.73777,-6.62688 8.08437,-10.30688 l 20.53032,-14.37202 -10.20048,-15.30277 -18.42179,4.09548 0,-37.90369 -52.35916,0 z"
         id="path4527"
         inkscape:connector-curvature="0"
         sodipodi:nodetypes="ccsccccccccsccscccccsccsscccccsccscccscccccccccscccccccssccscccccssccccccccscccscccccsccsccccccccccc" />
    </clipPath>
    <clipPath
       clipPathUnits="userSpaceOnUse"
       id="clipPath5075">
      <path
         style="display:inline;overflow:visible;visibility:visible;fill:none;stroke:#000000;stroke-width:5.15041924;stroke-linecap:butt;stroke-linejoin:miter;stroke-miterlimit:0;stroke-dasharray:none;stroke-dashoffset:0;stroke-opacity:1;marker:none;enable-background:accumulate"
         d="m 1043.2886,597.00719 125.0266,-3.33546 c 47.4451,-1.26574 86.5299,31.01738 87.6334,72.38368 l 2.7694,103.80743 c 1.1036,41.36604 -36.2043,75.68746 -83.6494,76.9532 l -45.2471,1.20711 -15.5848,63.48179 -17.2206,-62.60661 -46.9741,1.25317 c -47.4452,1.26575 -86.52993,-31.01767 -87.63349,-72.38371 l -2.76938,-103.80743 c -1.10357,-41.3663 36.20425,-75.68742 83.64947,-76.95317 z"
         id="path5077"
         sodipodi:nodetypes="cccccccccccc"
         inkscape:export-filename="/tmp/cc.png"
         inkscape:export-xdpi="21.99"
         inkscape:export-ydpi="21.99"
         inkscape:connector-curvature="0" />
    </clipPath>
    <clipPath
       clipPathUnits="userSpaceOnUse"
       id="clipPath5918">
      <path
         inkscape:connector-curvature="0"
         inkscape:export-ydpi="21.99"
         inkscape:export-xdpi="21.99"
         inkscape:export-filename="/tmp/cc.png"
         sodipodi:nodetypes="cccccccccccc"
         id="path5920"
         d="m 1054.7577,612.16112 110.991,-2.96102 c 42.1188,-1.12364 76.8036,27.0799 77.7682,63.23663 l 2.4206,90.73419 c 0.9646,36.1565 -32.1671,66.16951 -74.2859,67.29316 l -40.1677,1.07159 -13.8581,55.49337 -15.2644,-54.71644 -41.7008,1.1125 c -42.1189,1.12365 -76.80366,-27.08015 -77.76825,-63.23666 l -2.42061,-90.73418 c -0.96459,-36.15674 32.16706,-66.16949 74.28596,-67.29314 z"
         style="display:inline;overflow:visible;visibility:visible;fill:none;stroke:#000000;stroke-width:4.53686905;stroke-linecap:butt;stroke-linejoin:miter;stroke-miterlimit:0;stroke-dasharray:none;stroke-dashoffset:0;stroke-opacity:1;marker:none;enable-background:accumulate" />
    </clipPath>
    <clipPath
       clipPathUnits="userSpaceOnUse"
       id="clipPath6243">
      <path
         inkscape:connector-curvature="0"
         inkscape:export-ydpi="21.99"
         inkscape:export-xdpi="21.99"
         inkscape:export-filename="/tmp/cc.png"
         sodipodi:nodetypes="cccccccccccc"
         id="path6245"
         d="m 1967.0538,1098.3526 125.0711,0 c 47.462,0 85.672,33.314 85.6719,74.695 l 0,103.8443 c 10e-5,41.3808 -38.2099,74.6951 -85.6719,74.6951 l -45.2632,0 -17.2722,63.0436 -15.5448,-63.0436 -46.9908,0 c -47.4621,0 -85.672,-33.3143 -85.672,-74.6951 l 0,-103.8443 c 0,-41.381 38.2098,-74.695 85.6719,-74.695 z"
         style="display:inline;overflow:visible;visibility:visible;fill:none;stroke:#000000;stroke-width:5.15041924;stroke-linecap:butt;stroke-linejoin:miter;stroke-miterlimit:0;stroke-dasharray:none;stroke-dashoffset:0;stroke-opacity:1;marker:none;enable-background:accumulate" />
    </clipPath>
    <clipPath
       clipPathUnits="userSpaceOnUse"
       id="clipPath6271">
      <rect
         style="color:#000000;clip-rule:nonzero;display:inline;overflow:visible;visibility:visible;opacity:1;isolation:auto;mix-blend-mode:normal;color-interpolation:sRGB;color-interpolation-filters:linearRGB;solid-color:#000000;solid-opacity:1;fill:#f1c40f;fill-opacity:0.8;fill-rule:nonzero;stroke:#800000;stroke-width:25.50451469;stroke-linecap:butt;stroke-linejoin:miter;stroke-miterlimit:10;stroke-dasharray:none;stroke-dashoffset:0;stroke-opacity:0.8;marker:none;color-rendering:auto;image-rendering:auto;shape-rendering:auto;text-rendering:auto;enable-background:accumulate"
         id="rect6273"
         width="345.87305"
         height="262.26746"
         x="2708.7776"
         y="597.10229"
         ry="0"
         transform="matrix(0.94332817,0.33186135,-0.93713724,0.34896102,0,0)" />
    </clipPath>
    <clipPath
       clipPathUnits="userSpaceOnUse"
       id="clipPath6271-3">
      <rect
         style="color:#000000;clip-rule:nonzero;display:inline;overflow:visible;visibility:visible;opacity:1;isolation:auto;mix-blend-mode:normal;color-interpolation:sRGB;color-interpolation-filters:linearRGB;solid-color:#000000;solid-opacity:1;fill:#f1c40f;fill-opacity:0.8;fill-rule:nonzero;stroke:#800000;stroke-width:25.50451469;stroke-linecap:butt;stroke-linejoin:miter;stroke-miterlimit:10;stroke-dasharray:none;stroke-dashoffset:0;stroke-opacity:0.8;marker:none;color-rendering:auto;image-rendering:auto;shape-rendering:auto;text-rendering:auto;enable-background:accumulate"
         id="rect6273-6"
         width="345.87305"
         height="262.26746"
         x="2708.7776"
         y="597.10229"
         ry="0"
         transform="matrix(0.94332817,0.33186135,-0.93713724,0.34896102,0,0)" />
    </clipPath>
    <clipPath
       clipPathUnits="userSpaceOnUse"
       id="clipPath4489">
      <rect
         style="color:#000000;clip-rule:nonzero;display:inline;overflow:visible;visibility:visible;opacity:1;isolation:auto;mix-blend-mode:normal;color-interpolation:sRGB;color-interpolation-filters:linearRGB;solid-color:#000000;solid-opacity:1;fill:#f1c40f;fill-opacity:0.8;fill-rule:nonzero;stroke:#800000;stroke-width:13.67961216;stroke-linecap:butt;stroke-linejoin:miter;stroke-miterlimit:10;stroke-dasharray:none;stroke-dashoffset:0;stroke-opacity:0.8;marker:none;color-rendering:auto;image-rendering:auto;shape-rendering:auto;text-rendering:auto;enable-background:accumulate"
         id="rect4491"
         width="192.7851"
         height="135.36336"
         x="924.71918"
         y="1459.3391"
         ry="0"
         transform="matrix(1,0,-0.82963361,0.55830822,0,0)" />
    </clipPath>
  </defs>
  <sodipodi:namedview
     id="base"
     pagecolor="#ffffff"
     bordercolor="#666666"
     borderopacity="1.0"
     inkscape:pageopacity="0.0"
     inkscape:pageshadow="2"
     inkscape:zoom="0.7"
     inkscape:cx="-15.997552"
     inkscape:cy="-253.94516"
     inkscape:document-units="px"
     inkscape:current-layer="layer1"
     showgrid="false"
     inkscape:window-width="2560"
     inkscape:window-height="1368"
     inkscape:window-x="1600"
     inkscape:window-y="25"
     inkscape:window-maximized="1"
     fit-margin-top="0"
     fit-margin-left="0"
     fit-margin-right="0"
     fit-margin-bottom="0"
     showguides="true"
     inkscape:guide-bbox="true">
    <sodipodi:guide
       position="2771.4286,-321.42857"
       orientation="0,1"
       id="guide4338" />
    <sodipodi:guide
       position="2501.1377,-8.0812203"
       orientation="1,0"
       id="guide4340" />
    <sodipodi:guide
       position="2804.1834,-214.15234"
       orientation="1,0"
       id="guide4342" />
    <sodipodi:guide
       position="3112.5,-342.5"
       orientation="0,1"
       id="guide4310" />
    <sodipodi:guide
       position="-1111.1678,172.73608"
       orientation="1,0"
       id="guide7810" />
    <sodipodi:guide
       position="-812.16264,124.24876"
       orientation="1,0"
       id="guide7819" />
    <sodipodi:guide
       position="-257.5889,120.20815"
       orientation="0,1"
       id="guide4959" />
    <sodipodi:guide
       position="-249.76022,-235.74435"
       orientation="0,1"
       id="guide5040" />
  </sodipodi:namedview>
  <metadata
     id="metadata3045">
    <rdf:RDF>
      <cc:Work
         rdf:about="">
        <dc:format>image/svg+xml</dc:format>
        <dc:type
           rdf:resource="http://purl.org/dc/dcmitype/StillImage" />
        <dc:title></dc:title>
      </cc:Work>
    </rdf:RDF>
  </metadata>
  <g
     inkscape:label="Layer 1"
     inkscape:groupmode="layer"
     id="layer1"
     transform="translate(-224.21729,-408.40465)">
    <g
       style="font-style:normal;font-variant:normal;font-weight:normal;font-stretch:normal;font-size:215.11180115px;font-family:'DejaVu Sans';-inkscape-font-specification:'DejaVu Sans';fill:#ffffff;fill-opacity:1;stroke:#ffffff;stroke-width:3;stroke-linecap:butt;stroke-linejoin:miter;stroke-miterlimit:4;stroke-dasharray:none;stroke-opacity:1"
       id="g7137"
       transform="matrix(0.96874998,0,0,0.96874998,-4006.4096,-434.90181)" />
    <text
       xml:space="preserve"
       style="font-style:normal;font-variant:normal;font-weight:normal;font-stretch:normal;font-size:17.5px;line-height:125%;font-family:'DejaVu Sans';-inkscape-font-specification:'DejaVu Sans, Normal';text-align:start;letter-spacing:4.84000015px;word-spacing:0px;writing-mode:lr-tb;text-anchor:start;fill:#000000;fill-opacity:1;stroke:none;stroke-width:1px;stroke-linecap:butt;stroke-linejoin:miter;stroke-opacity:1"
       x="-61.65588"
       y="894.77777"
       id="text9514"
       sodipodi:linespacing="125%"><tspan
         sodipodi:role="line"
         id="tspan9516"
         x="-61.65588"
         y="894.77777" /></text>
    <g
       id="g4368"
       transform="matrix(0.75785553,0,0,0.75785553,90.323893,135.10855)">
      <path
         sodipodi:nodetypes="cc"
         inkscape:export-ydpi="149.97"
         inkscape:export-xdpi="149.97"
         inkscape:export-filename="/tmp/am-gojo.png"
         inkscape:connector-curvature="0"
         id="path4431"
         d="m 595.03955,527.19742 0,58.2142"
         style="color:#000000;clip-rule:nonzero;display:inline;overflow:visible;visibility:visible;opacity:1;isolation:auto;mix-blend-mode:normal;color-interpolation:sRGB;color-interpolation-filters:linearRGB;solid-color:#000000;solid-opacity:1;fill:none;fill-opacity:1;fill-rule:evenodd;stroke:#ffffff;stroke-width:18.50399971;stroke-linecap:butt;stroke-linejoin:miter;stroke-miterlimit:4;stroke-dasharray:none;stroke-dashoffset:0;stroke-opacity:1;color-rendering:auto;image-rendering:auto;shape-rendering:auto;text-rendering:auto;enable-background:accumulate" />
      <path
         style="color:#000000;clip-rule:nonzero;display:inline;overflow:visible;visibility:visible;opacity:1;isolation:auto;mix-blend-mode:normal;color-interpolation:sRGB;color-interpolation-filters:linearRGB;solid-color:#000000;solid-opacity:1;fill:none;fill-opacity:1;fill-rule:evenodd;stroke:#ffffff;stroke-width:18.55413055;stroke-linecap:butt;stroke-linejoin:miter;stroke-miterlimit:4;stroke-dasharray:none;stroke-dashoffset:0;stroke-opacity:1;color-rendering:auto;image-rendering:auto;shape-rendering:auto;text-rendering:auto;enable-background:accumulate"
         d="m 382.63385,534.58439 0,52.16243"
         id="path4432"
         inkscape:connector-curvature="0"
         inkscape:export-filename="/tmp/am-gojo.png"
         inkscape:export-xdpi="149.97"
         inkscape:export-ydpi="149.97"
         sodipodi:nodetypes="cc" />
      <g
         id="g9634"
         transform="matrix(0.52579873,-0.14937652,0.18497516,0.42460829,-917.52107,460.36864)"
         clip-path="url(#clipPath6271-3)"
         inkscape:export-filename="/tmp/am-gojo.png"
         inkscape:export-xdpi="149.97"
         inkscape:export-ydpi="149.97">
        <rect
           style="color:#000000;clip-rule:nonzero;display:inline;overflow:visible;visibility:visible;opacity:1;isolation:auto;mix-blend-mode:normal;color-interpolation:sRGB;color-interpolation-filters:linearRGB;solid-color:#000000;solid-opacity:1;fill:#e74c3c;fill-opacity:1;fill-rule:nonzero;stroke:#e74c3c;stroke-width:12.51522255;stroke-linecap:butt;stroke-linejoin:miter;stroke-miterlimit:10;stroke-dasharray:none;stroke-dashoffset:0;stroke-opacity:1;marker:none;color-rendering:auto;image-rendering:auto;shape-rendering:auto;text-rendering:auto;enable-background:accumulate"
           id="rect9636"
           width="171.86024"
           height="398.60602"
           x="-2485.9875"
           y="411.88074"
           ry="17.981777"
           transform="matrix(-0.69395851,-0.72001499,0.71441391,-0.69972334,0,0)" />
        <rect
           style="color:#000000;clip-rule:nonzero;display:inline;overflow:visible;visibility:visible;opacity:1;isolation:auto;mix-blend-mode:normal;color-interpolation:sRGB;color-interpolation-filters:linearRGB;solid-color:#000000;solid-opacity:1;fill:#27ae60;fill-opacity:1;fill-rule:nonzero;stroke:#27ae60;stroke-width:12.71640491;stroke-linecap:butt;stroke-linejoin:miter;stroke-miterlimit:10;stroke-dasharray:none;stroke-dashoffset:0;stroke-opacity:1;marker:none;color-rendering:auto;image-rendering:auto;shape-rendering:auto;text-rendering:auto;enable-background:accumulate"
           id="rect9638"
           width="177.49841"
           height="398.4523"
           x="-2265.3162"
           y="383.21341"
           ry="17.974842"
           transform="matrix(-0.70596014,-0.70825156,0.70255441,-0.71163004,0,0)" />
        <rect
           style="color:#000000;clip-rule:nonzero;display:inline;overflow:visible;visibility:visible;opacity:1;isolation:auto;mix-blend-mode:normal;color-interpolation:sRGB;color-interpolation-filters:linearRGB;solid-color:#000000;solid-opacity:1;fill:#f1c40f;fill-opacity:0.8;fill-rule:nonzero;stroke:none;stroke-width:15.34456253;stroke-linecap:butt;stroke-linejoin:miter;stroke-miterlimit:10;stroke-dasharray:none;stroke-dashoffset:0;stroke-opacity:0.8;marker:none;color-rendering:auto;image-rendering:auto;shape-rendering:auto;text-rendering:auto;enable-background:accumulate"
           id="rect9640"
           width="66.670067"
           height="600.03064"
           x="-2326.4932"
           y="295.60614"
           ry="34.0597"
           transform="matrix(-0.70640368,-0.70780918,0.70780918,-0.70640368,0,0)" />
        <rect
           transform="matrix(0.71498904,-0.69913566,0.69913566,0.71498904,0,0)"
           ry="34.0597"
           y="2002.027"
           x="641.56976"
           height="600.03064"
           width="66.670067"
           id="rect9642"
           style="color:#000000;clip-rule:nonzero;display:inline;overflow:visible;visibility:visible;opacity:1;isolation:auto;mix-blend-mode:normal;color-interpolation:sRGB;color-interpolation-filters:linearRGB;solid-color:#000000;solid-opacity:1;fill:#f1c40f;fill-opacity:0.8;fill-rule:nonzero;stroke:none;stroke-width:15.34456253;stroke-linecap:butt;stroke-linejoin:miter;stroke-miterlimit:10;stroke-dasharray:none;stroke-dashoffset:0;stroke-opacity:0.8;marker:none;color-rendering:auto;image-rendering:auto;shape-rendering:auto;text-rendering:auto;enable-background:accumulate" />
        <rect
           style="color:#000000;clip-rule:nonzero;display:inline;overflow:visible;visibility:visible;opacity:1;isolation:auto;mix-blend-mode:normal;color-interpolation:sRGB;color-interpolation-filters:linearRGB;solid-color:#000000;solid-opacity:1;fill:#f1c40f;fill-opacity:0.8;fill-rule:nonzero;stroke:none;stroke-width:15.34456253;stroke-linecap:butt;stroke-linejoin:miter;stroke-miterlimit:10;stroke-dasharray:none;stroke-dashoffset:0;stroke-opacity:0.8;marker:none;color-rendering:auto;image-rendering:auto;shape-rendering:auto;text-rendering:auto;enable-background:accumulate"
           id="rect9644"
           width="66.670067"
           height="600.03064"
           x="484.11649"
           y="1975.2189"
           ry="34.0597"
           transform="matrix(0.71498904,-0.69913566,0.69913566,0.71498904,0,0)" />
      </g>
      <path
         inkscape:connector-curvature="0"
         inkscape:export-ydpi="149.97"
         inkscape:export-xdpi="149.97"
         inkscape:export-filename="/tmp/am-gojo.png"
         sodipodi:nodetypes="cccccccccccc"
         id="path9646"
         d="m 312.50289,409.75079 125.0711,0 c 47.462,0 85.672,33.314 85.6719,74.695 l 0,60.27283 c 10e-5,41.3808 -38.2099,74.6951 -85.6719,74.6951 l -45.2632,0 -17.2722,53.7579 -15.5448,-53.7579 -46.9908,0 c -47.4621,0 -85.672,-33.3143 -85.672,-74.6951 l 0,-60.27283 c 0,-41.381 38.2098,-74.695 85.6719,-74.695 z"
         style="color:#000000;clip-rule:nonzero;display:inline;overflow:visible;visibility:visible;opacity:1;isolation:auto;mix-blend-mode:normal;color-interpolation:sRGB;color-interpolation-filters:linearRGB;solid-color:#000000;solid-opacity:1;fill:#2c3e50;fill-opacity:1;fill-rule:nonzero;stroke:#2c3e50;stroke-width:3.64071584;stroke-linecap:butt;stroke-linejoin:miter;stroke-miterlimit:4;stroke-dasharray:none;stroke-dashoffset:0;stroke-opacity:1;marker:none;color-rendering:auto;image-rendering:auto;shape-rendering:auto;text-rendering:auto;enable-background:accumulate" />
      <g
         inkscape:export-ydpi="149"
         inkscape:export-xdpi="149"
         inkscape:export-filename="/tmp/am-gojo.png"
         id="text9648"
         style="font-style:normal;font-variant:normal;font-weight:normal;font-stretch:normal;font-size:219.78251648px;line-height:125%;font-family:'DejaVu Sans';-inkscape-font-specification:'DejaVu Sans, Normal';text-align:start;letter-spacing:60.78556061px;word-spacing:0px;writing-mode:lr-tb;text-anchor:start;fill:#ffffff;fill-opacity:1;stroke:none;stroke-width:1px;stroke-linecap:butt;stroke-linejoin:miter;stroke-opacity:1"
         transform="matrix(1.3093396,0,0,0.76788773,417.70428,62.192768)">
        <path
           inkscape:connector-curvature="0"
           id="path4939"
           d="m -93.02582,698.1003 q -4.936522,0 -6.760888,-0.42927 -1.824362,-0.42926 -4.399942,-2.14631 -3.64873,-2.36095 -7.61941,-9.76573 -3.97068,-7.40478 -3.97068,-23.2875 l 0,-8.15599 q 2.57557,-46.78964 22.75092,-68.68204 l -22.32166,4.29263 0,-44.64333 31.336177,0 0,33.91176 19.316823,-4.29263 2.575576,3.86337 -12.877882,9.01451 q -15.024195,16.31199 -15.024195,28.76061 17.170509,-14.59494 41.209222,-13.30715 38.633645,4.29263 42.9262723,40.3507 l 0,39.06291 q 0,2.79021 1.9316823,5.36578 1.9316822,2.57558 4.82920564,4.39994 2.89752336,1.82437 6.11699386,3.11216 -13.7364073,2.57558 -20.6046111,2.57558 -4.936521,0 -6.760888,-0.42927 -1.824366,-0.42926 -4.399943,-2.14631 -3.648733,-2.36095 -5.258468,-5.36578 -1.609735,-3.00484 -1.609735,-7.5121 l 0,-33.05323 q 0.429262,-30.90692 -17.599772,-33.4825 -20.175348,-2.14631 -32.194705,9.87305 -7.726729,8.15599 -10.302305,21.46313 -1.717051,8.58526 -1.717051,14.59494 0,6.8682 1.931682,12.87788 1.931682,6.00968 6.009678,10.83888 4.077996,4.82921 6.97552,6.65357 2.897523,1.82437 6.116994,3.11216 -13.736408,2.57558 -20.604611,2.57558 z" />
      </g>
      <g
         inkscape:export-ydpi="149"
         inkscape:export-xdpi="149"
         inkscape:export-filename="/tmp/am-gojo.png"
         style="color:#000000;clip-rule:nonzero;display:inline;overflow:visible;visibility:visible;opacity:1;isolation:auto;mix-blend-mode:normal;color-interpolation:sRGB;color-interpolation-filters:linearRGB;solid-color:#000000;solid-opacity:1;fill:#ffffff;fill-opacity:1;fill-rule:nonzero;stroke:none;stroke-width:3.88917732px;stroke-linecap:butt;stroke-linejoin:miter;stroke-miterlimit:4;stroke-dasharray:none;stroke-dashoffset:0;stroke-opacity:1;color-rendering:auto;image-rendering:auto;shape-rendering:auto;text-rendering:auto;enable-background:accumulate"
         id="g4279"
         transform="matrix(0.30577192,-0.09903002,0,0.2060889,-174.15441,582.61625)">
        <g
           id="text4281"
           style="color:#000000;font-style:normal;font-variant:normal;font-weight:bold;font-stretch:normal;font-size:821.41748047px;line-height:125%;font-family:FreeSans;-inkscape-font-specification:'FreeSans Bold';text-align:start;writing-mode:lr-tb;text-anchor:start;clip-rule:nonzero;display:inline;overflow:visible;visibility:visible;isolation:auto;mix-blend-mode:normal;color-interpolation:sRGB;color-interpolation-filters:linearRGB;solid-color:#000000;solid-opacity:1;fill:#ffffff;fill-opacity:1;fill-rule:nonzero;stroke:none;stroke-width:3.88917732px;stroke-linecap:butt;stroke-linejoin:miter;stroke-miterlimit:4;stroke-dasharray:none;stroke-dashoffset:0;stroke-opacity:1;color-rendering:auto;image-rendering:auto;shape-rendering:auto;text-rendering:auto;enable-background:accumulate">
          <path
             sodipodi:nodetypes="ccscccccscscccccsscccccsscccc"
             inkscape:connector-curvature="0"
             id="path4935"
             style="color:#000000;font-style:normal;font-variant:normal;font-weight:normal;font-stretch:normal;font-family:'Hammersmith One';-inkscape-font-specification:'Hammersmith One';letter-spacing:62.32208252px;word-spacing:0px;clip-rule:nonzero;display:inline;overflow:visible;visibility:visible;isolation:auto;mix-blend-mode:normal;color-interpolation:sRGB;color-interpolation-filters:linearRGB;solid-color:#000000;solid-opacity:1;fill:#ffffff;fill-opacity:1;fill-rule:nonzero;stroke:none;stroke-width:3.88917732px;stroke-linecap:butt;stroke-linejoin:miter;stroke-miterlimit:4;stroke-dasharray:none;stroke-dashoffset:0;stroke-opacity:1;color-rendering:auto;image-rendering:auto;shape-rendering:auto;text-rendering:auto;enable-background:accumulate"
             d="m 1658.1831,294.46324 c 8.5564,0.53477 15.9096,0.93585 22.0595,1.20324 6.4173,0.26739 12.1662,0.40109 17.2466,0.40109 15.2411,0 28.0758,-0.26739 38.5039,-0.80217 10.6955,-0.53477 18.1824,-1.33694 22.4606,-2.4065 l 137.8764,210.68534 126.4372,-210.68534 c 2.1391,0.53478 5.6151,1.06956 10.4281,1.60434 5.0804,0.26739 10.6956,0.53477 16.8455,0.80216 6.1499,0.26739 12.5673,0.53478 19.252,0.80217 l 18.4498,0 c 9.3586,0 17.1129,-0.1337 23.2628,-0.40109 6.4173,-0.26739 13.9042,-0.66847 22.4606,-1.20324 l 0,712.84976 -32.0866,0 -23.2628,0 c -7.4869,0.2674 -14.3053,0.5348 -20.4552,0.8022 -6.1499,0.2674 -11.4977,0.5348 -16.0433,0.8021 -4.5456,0.2674 -8.0217,0.5348 -10.4282,0.8022 l 0,-543.99393 -132.0523,223.1189 -138.6785,-203.86693 0,346.93659 c -2.4065,-0.26739 -5.8826,-0.53478 -10.4282,-0.80217 -4.5456,-0.26739 -9.8934,-0.53478 -16.0433,-0.80217 -6.1499,-0.26739 -12.9683,-0.53477 -20.4552,-0.80216 l -23.2628,0 -32.0866,0 z" />
        </g>
        <g
           id="text4289"
           style="color:#000000;font-style:normal;font-variant:normal;font-weight:normal;font-stretch:normal;font-size:93.4822464px;line-height:125%;font-family:'DejaVu Sans';-inkscape-font-specification:'DejaVu Sans, Normal';text-indent:0;text-align:start;text-decoration:none;text-decoration-line:none;text-decoration-style:solid;text-decoration-color:#000000;letter-spacing:9.0490818px;word-spacing:0px;text-transform:none;direction:ltr;block-progression:tb;writing-mode:lr-tb;baseline-shift:baseline;text-anchor:start;white-space:normal;clip-rule:nonzero;display:inline;overflow:visible;visibility:visible;opacity:1;isolation:auto;mix-blend-mode:normal;color-interpolation:sRGB;color-interpolation-filters:linearRGB;solid-color:#000000;solid-opacity:1;fill:#ffffff;fill-opacity:1;fill-rule:nonzero;stroke:none;stroke-width:3.88917732px;stroke-linecap:butt;stroke-linejoin:miter;stroke-miterlimit:4;stroke-dasharray:none;stroke-dashoffset:0;stroke-opacity:1;color-rendering:auto;image-rendering:auto;shape-rendering:auto;text-rendering:auto;enable-background:accumulate" />
      </g>
      <path
         inkscape:export-ydpi="149"
         inkscape:export-xdpi="149"
         inkscape:export-filename="/tmp/am-gojo.png"
         inkscape:connector-curvature="0"
         id="path9656"
         d="m 243.73018,525.18025 -0.20859,14.35444"
         style="color:#000000;clip-rule:nonzero;display:inline;overflow:visible;visibility:visible;opacity:1;isolation:auto;mix-blend-mode:normal;color-interpolation:sRGB;color-interpolation-filters:linearRGB;solid-color:#000000;solid-opacity:1;fill:#ffffff;fill-opacity:1;fill-rule:nonzero;stroke:#2c3e50;stroke-width:3.00812793;stroke-linecap:butt;stroke-linejoin:miter;stroke-miterlimit:4;stroke-dasharray:none;stroke-dashoffset:0;stroke-opacity:1;color-rendering:auto;image-rendering:auto;shape-rendering:auto;text-rendering:auto;enable-background:accumulate" />
      <path
         inkscape:export-ydpi="149"
         inkscape:export-xdpi="149"
         inkscape:export-filename="/tmp/am-gojo.png"
         style="color:#000000;clip-rule:nonzero;display:inline;overflow:visible;visibility:visible;opacity:1;isolation:auto;mix-blend-mode:normal;color-interpolation:sRGB;color-interpolation-filters:linearRGB;solid-color:#000000;solid-opacity:1;fill:#ffffff;fill-opacity:1;fill-rule:nonzero;stroke:#2c3e50;stroke-width:5;stroke-linecap:butt;stroke-linejoin:miter;stroke-miterlimit:4;stroke-dasharray:none;stroke-dashoffset:0;stroke-opacity:1;color-rendering:auto;image-rendering:auto;shape-rendering:auto;text-rendering:auto;enable-background:accumulate"
         d="m 330.63677,524.09552 -0.17117,14.35477"
         id="path9662"
         inkscape:connector-curvature="0" />
      <path
         inkscape:connector-curvature="0"
         id="path4941"
         d="m 366.93914,524.15653 -0.16875,18.87317"
         style="color:#000000;clip-rule:nonzero;display:inline;overflow:visible;visibility:visible;opacity:1;isolation:auto;mix-blend-mode:normal;color-interpolation:sRGB;color-interpolation-filters:linearRGB;solid-color:#000000;solid-opacity:1;fill:#ffffff;fill-opacity:1;fill-rule:nonzero;stroke:#2c3e50;stroke-width:5;stroke-linecap:butt;stroke-linejoin:miter;stroke-miterlimit:4;stroke-dasharray:none;stroke-dashoffset:0;stroke-opacity:1;color-rendering:auto;image-rendering:auto;shape-rendering:auto;text-rendering:auto;enable-background:accumulate"
         inkscape:export-filename="/tmp/am-gojo.png"
         inkscape:export-xdpi="149"
         inkscape:export-ydpi="149" />
      <path
         inkscape:export-ydpi="149"
         inkscape:export-xdpi="149"
         inkscape:export-filename="/tmp/am-gojo.png"
         sodipodi:nodetypes="cc"
         inkscape:connector-curvature="0"
         id="path4943"
         d="m 330.57141,511.44451 c 11.52458,-3.42633 24.21986,-15.18712 -0.28337,-10.13219"
         style="color:#000000;clip-rule:nonzero;display:inline;overflow:visible;visibility:visible;opacity:1;isolation:auto;mix-blend-mode:normal;color-interpolation:sRGB;color-interpolation-filters:linearRGB;solid-color:#000000;solid-opacity:1;fill:none;fill-opacity:1;fill-rule:nonzero;stroke:#2c3e50;stroke-width:5;stroke-linecap:butt;stroke-linejoin:miter;stroke-miterlimit:4;stroke-dasharray:none;stroke-dashoffset:0;stroke-opacity:1;color-rendering:auto;image-rendering:auto;shape-rendering:auto;text-rendering:auto;enable-background:accumulate" />
    </g>
  </g>
</svg>
